<?xml version="1.0" encoding="utf-8"?>
<!-- Designed by Vexels.com - 2016 All Rights Reserved - https://vexels.com/terms-and-conditions/  -->

<svg version="1.0" id="Capa_1" xmlns="http://www.w3.org/2000/svg" xmlns:xlink="http://www.w3.org/1999/xlink" x="0px" y="0px"
	 width="1200px" height="1200px" viewBox="0 0 1200 1200" enable-background="new 0 0 1200 1200" xml:space="preserve">
<g>
	<path fill="#F15B5C" d="M1093.01,600c0,272.278-220.729,493.009-493.012,493.009c-272.278,0-493.008-220.73-493.008-493.009
		c0-272.283,220.73-493.009,493.008-493.009C872.281,106.991,1093.01,327.717,1093.01,600z"/>
	<path fill="#FFFFFF" d="M879.891,611.244c-71.777-96.854-222.845-272.363-222.845-272.363s-15.617-28.042-56.311-28.742V310
		c-0.274,0-0.463,0.054-0.726,0.054c-0.274,0-0.459-0.054-0.741-0.054v0.139c-40.721,0.7-56.31,28.742-56.31,28.742
		s-151.075,175.51-222.85,272.363c-60.125,81.18,8.27,82.539,8.27,82.539h61.896c0,0,0,41.677,0,128.345
		c0,86.654,139.882,65.626,139.882,65.626l0.413-127.936h68.694h1.463h68.702l0.414,127.936c0,0,139.886,18.558,139.886-68.112
		c0-86.66,0-125.858,0-125.858h61.892C871.621,693.783,940.015,692.424,879.891,611.244z"/>
	<path opacity="0.1" fill="#231F20" d="M1069.645,750.407c-60.186,188.02-230.107,326.96-434.447,341.381L413.074,869.665
		c39.635,29.757,117.091,18.101,117.091,18.101l0.394-127.953h138.86l0.435,127.953c0,0,139.892,18.534,139.892-68.124
		c0-86.662,0-125.862,0-125.862h61.879c0,0,68.406-1.344,8.263-82.549c-71.764-96.855-222.838-272.35-222.838-272.35
		s-0.709-1.266-2.211-3.279L1069.645,750.407z"/>
	<path opacity="0.05" fill="#231F20" d="M871.625,693.779h-61.879c0,0,0,39.2,0,125.862c0,86.658-139.892,68.124-139.892,68.124
		l-0.435-127.953h-69.313V310.073c0.201,0,0.398-0.081,0.633-0.081v0.157c19.84,0.318,33.708,7.156,42.719,14.071l11.38,11.381
		c1.501,2.014,2.211,3.279,2.211,3.279s151.074,175.494,222.838,272.35C940.031,692.436,871.625,693.779,871.625,693.779z"/>
	<path fill="#FFFFFF" d="M654.839,335.602l-11.38-11.381C648.989,328.489,652.705,332.757,654.839,335.602z"/>
</g>
</svg>
